<svg width="27" height="27" viewBox="0 0 27 27" fill="none" xmlns="http://www.w3.org/2000/svg">
  <path d="M22.0099 23.4315L15.0011 16.4226C14.4449 16.8676 13.8052 17.2199 13.082 17.4795C12.3589 17.7391 11.5894 17.8689 10.7736 17.8689C8.7525 17.8689 7.0422 17.1688 5.64266 15.7685C4.24312 14.3682 3.54298 12.6579 3.54224 10.6376C3.54224 8.61652 4.24238 6.90621 5.64266 5.50667C7.04294 4.10713 8.75324 3.40699 10.7736 3.40625C12.7946 3.40625 14.5049 4.10639 15.9045 5.50667C17.304 6.90696 18.0042 8.61726 18.0049 10.6376C18.0049 11.4534 17.8751 12.2229 17.6155 12.946C17.3559 13.6692 17.0036 14.3089 16.5586 14.8651L23.5675 21.874L22.0099 23.4315ZM10.7736 15.6439C12.1642 15.6439 13.3464 15.157 14.3203 14.1832C15.2941 13.2093 15.7806 12.0275 15.7799 10.6376C15.7799 9.24694 15.293 8.06471 14.3191 7.09089C13.3453 6.11707 12.1635 5.63053 10.7736 5.63127C9.38293 5.63127 8.2007 6.11818 7.22688 7.092C6.25306 8.06582 5.76652 9.24768 5.76726 10.6376C5.76726 12.0282 6.25417 13.2105 7.22799 14.1843C8.20181 15.1581 9.38367 15.6446 10.7736 15.6439Z" fill="#D5F3FF"/>
</svg>