<svg width="193" height="32" viewBox="0 0 193 32" fill="none" xmlns="http://www.w3.org/2000/svg">
<path d="M34.9984 1.56965L27.3978 26H23.8181L18.0837 8.45765C18.0159 8.26538 17.948 8.05614 17.8801 7.82993C17.8236 7.60372 17.767 7.36055 17.7105 7.10041C17.6539 7.36055 17.5917 7.60372 17.5239 7.82993C17.4673 8.05614 17.4051 8.26538 17.3372 8.45765L11.552 26H7.97228L0.371729 1.56965H3.69697C4.03628 1.56965 4.31904 1.65448 4.54525 1.82414C4.78276 1.98248 4.94111 2.20303 5.02028 2.48579L9.60097 18.145C9.69145 18.4843 9.77628 18.8519 9.85545 19.2477C9.93463 19.6436 10.0138 20.0564 10.093 20.4862C10.1721 20.0564 10.257 19.6436 10.3475 19.2477C10.4492 18.8406 10.5567 18.473 10.6698 18.145L15.9121 2.48579C15.9913 2.25959 16.1497 2.05034 16.3872 1.85807C16.6247 1.66579 16.9075 1.56965 17.2355 1.56965H18.3891C18.7397 1.56965 19.0225 1.66014 19.2374 1.8411C19.4523 2.01076 19.6163 2.22565 19.7294 2.48579L24.9548 18.145C25.0679 18.473 25.1697 18.8292 25.2601 19.2138C25.3619 19.587 25.4524 19.9829 25.5316 20.4014C25.6108 19.9829 25.6843 19.587 25.7521 19.2138C25.8313 18.8292 25.9161 18.473 26.0066 18.145L30.5704 2.48579C30.6382 2.23696 30.7909 2.02207 31.0284 1.8411C31.2772 1.66014 31.5657 1.56965 31.8937 1.56965H34.9984ZM46.9879 15.3966C46.9879 14.7858 46.8975 14.2203 46.7165 13.7C46.5468 13.1684 46.2923 12.7103 45.953 12.3258C45.6137 11.9299 45.1896 11.6246 44.6806 11.4097C44.183 11.1834 43.6061 11.0703 42.9501 11.0703C41.6268 11.0703 40.5863 11.4492 39.8285 12.207C39.0707 12.9648 38.59 14.028 38.3864 15.3966H46.9879ZM38.2846 17.636C38.3299 18.62 38.4826 19.4739 38.7427 20.1978C39.0028 20.9103 39.3478 21.5041 39.7776 21.9792C40.2187 22.4542 40.739 22.8105 41.3384 23.048C41.9492 23.2742 42.6278 23.3873 43.3743 23.3873C44.0868 23.3873 44.7032 23.3081 45.2235 23.1498C45.7438 22.9801 46.1962 22.7992 46.5808 22.6069C46.9653 22.4033 47.2933 22.2223 47.5648 22.064C47.8362 21.8943 48.085 21.8095 48.3112 21.8095C48.6053 21.8095 48.8315 21.9226 48.9899 22.1488L50.0248 23.4891C49.595 23.9981 49.1086 24.4279 48.5657 24.7785C48.0228 25.1291 47.446 25.4175 46.8352 25.6437C46.2245 25.8586 45.5968 26.0113 44.9521 26.1018C44.3074 26.2036 43.6797 26.2545 43.0689 26.2545C41.87 26.2545 40.7559 26.0566 39.7267 25.6607C38.7088 25.2535 37.8209 24.6597 37.0631 23.8793C36.3166 23.0989 35.7285 22.1319 35.2987 20.9782C34.8802 19.8246 34.671 18.4956 34.671 16.9913C34.671 15.7924 34.8576 14.6727 35.2308 13.6321C35.6154 12.5916 36.1583 11.6868 36.8595 10.9177C37.5721 10.1486 38.4317 9.54345 39.4383 9.10234C40.4562 8.64993 41.6042 8.42372 42.8823 8.42372C43.9455 8.42372 44.9295 8.59903 45.8343 8.94966C46.7391 9.28897 47.5195 9.79228 48.1755 10.4596C48.8315 11.1269 49.3405 11.9469 49.7024 12.9196C50.0757 13.881 50.2623 14.9781 50.2623 16.2109C50.2623 16.7764 50.2001 17.1553 50.0757 17.3476C49.9512 17.5399 49.725 17.636 49.397 17.636H38.2846ZM62.9101 18.4334C61.6094 18.4786 60.5123 18.5861 59.6188 18.7557C58.7252 18.9141 58.0014 19.1233 57.4472 19.3834C56.893 19.6323 56.4915 19.932 56.2426 20.2826C56.0051 20.6332 55.8863 21.0178 55.8863 21.4363C55.8863 21.8434 55.9486 22.1941 56.073 22.4881C56.2087 22.7709 56.3897 23.0084 56.6159 23.2007C56.8534 23.3817 57.1248 23.5174 57.4302 23.6079C57.7469 23.687 58.0919 23.7266 58.4651 23.7266C59.4152 23.7266 60.2295 23.5513 60.9081 23.2007C61.5981 22.8388 62.2654 22.3185 62.9101 21.6399V18.4334ZM53.2397 11.1043C55.1964 9.28331 57.5263 8.37283 60.2295 8.37283C61.2248 8.37283 62.107 8.53683 62.8761 8.86483C63.6566 9.18152 64.3069 9.63393 64.8272 10.2221C65.3588 10.8102 65.7603 11.5114 66.0317 12.3258C66.3145 13.1288 66.4559 14.0223 66.4559 15.0063V26H64.8272C64.4766 26 64.2108 25.9491 64.0298 25.8473C63.8488 25.7342 63.6961 25.5137 63.5717 25.1857L63.2155 23.7775C62.7743 24.1734 62.3389 24.5297 61.9091 24.8463C61.4793 25.1517 61.0326 25.4119 60.5688 25.6268C60.1164 25.8417 59.6244 26 59.0928 26.1018C58.5726 26.2149 57.9957 26.2714 57.3623 26.2714C56.6611 26.2714 56.0051 26.1753 55.3943 25.983C54.7949 25.7908 54.2746 25.5023 53.8335 25.1178C53.3924 24.7219 53.0418 24.2356 52.7817 23.6588C52.5328 23.0819 52.4084 22.4033 52.4084 21.6229C52.4084 20.9556 52.5837 20.3052 52.9343 19.6719C53.2963 19.0385 53.8844 18.473 54.6988 17.9753C55.5244 17.4663 56.6046 17.0479 57.9392 16.7199C59.2851 16.3919 60.9421 16.2052 62.9101 16.16V15.0063C62.9101 13.7622 62.6443 12.8348 62.1127 12.224C61.5811 11.6132 60.8007 11.3079 59.7715 11.3079C59.0702 11.3079 58.4821 11.3983 58.007 11.5793C57.532 11.749 57.1192 11.9356 56.7686 12.1392C56.4179 12.3428 56.1069 12.535 55.8355 12.716C55.564 12.8857 55.2756 12.9705 54.9702 12.9705C54.7214 12.9705 54.5065 12.9083 54.3255 12.7839C54.1559 12.6481 54.0145 12.4841 53.9014 12.2919L53.2397 11.1043ZM76.0446 26.2714C74.6081 26.2714 73.4997 25.8699 72.7193 25.0669C71.9502 24.2526 71.5657 23.1102 71.5657 21.6399V11.5623H69.6655C69.4619 11.5623 69.2866 11.5001 69.1396 11.3757C68.9926 11.24 68.919 11.0421 68.919 10.7819V9.30593L71.7184 8.89876L72.5157 3.89393C72.5723 3.70165 72.6684 3.54896 72.8041 3.43586C72.9399 3.31145 73.1208 3.24924 73.347 3.24924H75.2132V8.93269H80.0145V11.5623H75.2132V21.3854C75.2132 22.0074 75.3659 22.4825 75.6713 22.8105C75.9767 23.1385 76.3839 23.3025 76.8928 23.3025C77.1756 23.3025 77.4188 23.2686 77.6224 23.2007C77.8259 23.1215 78.0012 23.0423 78.1483 22.9632C78.2953 22.8727 78.4197 22.7935 78.5215 22.7257C78.6346 22.6465 78.7421 22.6069 78.8439 22.6069C79.0475 22.6069 79.2115 22.72 79.3359 22.9462L80.4217 24.7276C79.8561 25.2252 79.1888 25.6098 78.4197 25.8812C77.6506 26.1414 76.8589 26.2714 76.0446 26.2714ZM86.5372 10.748C87.2498 10.0468 88.0302 9.4869 88.8784 9.06841C89.7267 8.63862 90.7164 8.42372 91.8474 8.42372C92.7975 8.42372 93.6288 8.58207 94.3413 8.89876C95.0652 9.21545 95.6703 9.66221 96.1567 10.239C96.6543 10.8159 97.0276 11.5114 97.2764 12.3258C97.5252 13.1288 97.6496 14.0167 97.6496 14.9894V26H94.019V14.9894C94.019 13.8244 93.7476 12.9196 93.2047 12.2749C92.6731 11.6302 91.8587 11.3079 90.7616 11.3079C89.9473 11.3079 89.1895 11.4945 88.4882 11.8677C87.7983 12.241 87.148 12.7499 86.5372 13.3946V26H82.8896V0.891034H86.5372V10.748ZM113.259 15.3966C113.259 14.7858 113.169 14.2203 112.988 13.7C112.818 13.1684 112.564 12.7103 112.225 12.3258C111.885 11.9299 111.461 11.6246 110.952 11.4097C110.455 11.1834 109.878 11.0703 109.222 11.0703C107.898 11.0703 106.858 11.4492 106.1 12.207C105.342 12.9648 104.862 14.028 104.658 15.3966H113.259ZM104.556 17.636C104.601 18.62 104.754 19.4739 105.014 20.1978C105.274 20.9103 105.619 21.5041 106.049 21.9792C106.49 22.4542 107.011 22.8105 107.61 23.048C108.221 23.2742 108.899 23.3873 109.646 23.3873C110.358 23.3873 110.975 23.3081 111.495 23.1498C112.015 22.9801 112.468 22.7992 112.852 22.6069C113.237 22.4033 113.565 22.2223 113.836 22.064C114.108 21.8943 114.357 21.8095 114.583 21.8095C114.877 21.8095 115.103 21.9226 115.261 22.1488L116.296 23.4891C115.867 23.9981 115.38 24.4279 114.837 24.7785C114.294 25.1291 113.718 25.4175 113.107 25.6437C112.496 25.8586 111.868 26.0113 111.224 26.1018C110.579 26.2036 109.951 26.2545 109.34 26.2545C108.142 26.2545 107.027 26.0566 105.998 25.6607C104.98 25.2535 104.092 24.6597 103.335 23.8793C102.588 23.0989 102 22.1319 101.57 20.9782C101.152 19.8246 100.943 18.4956 100.943 16.9913C100.943 15.7924 101.129 14.6727 101.502 13.6321C101.887 12.5916 102.43 11.6868 103.131 10.9177C103.844 10.1486 104.703 9.54345 105.71 9.10234C106.728 8.64993 107.876 8.42372 109.154 8.42372C110.217 8.42372 111.201 8.59903 112.106 8.94966C113.011 9.28897 113.791 9.79228 114.447 10.4596C115.103 11.1269 115.612 11.9469 115.974 12.9196C116.347 13.881 116.534 14.9781 116.534 16.2109C116.534 16.7764 116.472 17.1553 116.347 17.3476C116.223 17.5399 115.997 17.636 115.669 17.636H104.556ZM123.379 11.9017C123.922 10.8046 124.578 9.94497 125.347 9.3229C126.117 8.68952 127.038 8.37283 128.113 8.37283C128.486 8.37283 128.837 8.41807 129.165 8.50855C129.493 8.58772 129.787 8.71214 130.047 8.88179L129.792 11.6302C129.747 11.8225 129.674 11.9582 129.572 12.0374C129.481 12.1052 129.357 12.1392 129.199 12.1392C129.029 12.1392 128.786 12.1109 128.469 12.0543C128.152 11.9865 127.819 11.9526 127.468 11.9526C126.959 11.9526 126.507 12.0261 126.111 12.1731C125.726 12.3201 125.376 12.535 125.059 12.8178C124.754 13.1006 124.482 13.4455 124.245 13.8527C124.007 14.2599 123.787 14.7236 123.583 15.2439V26H119.935V8.69517H122.056C122.441 8.69517 122.706 8.76869 122.853 8.91572C123.001 9.05145 123.102 9.29462 123.159 9.64524L123.379 11.9017ZM149.428 18.4334C148.127 18.4786 147.03 18.5861 146.136 18.7557C145.243 18.9141 144.519 19.1233 143.965 19.3834C143.41 19.6323 143.009 19.932 142.76 20.2826C142.523 20.6332 142.404 21.0178 142.404 21.4363C142.404 21.8434 142.466 22.1941 142.59 22.4881C142.726 22.7709 142.907 23.0084 143.133 23.2007C143.371 23.3817 143.642 23.5174 143.948 23.6079C144.264 23.687 144.609 23.7266 144.983 23.7266C145.933 23.7266 146.747 23.5513 147.426 23.2007C148.116 22.8388 148.783 22.3185 149.428 21.6399V18.4334ZM139.757 11.1043C141.714 9.28331 144.044 8.37283 146.747 8.37283C147.742 8.37283 148.625 8.53683 149.394 8.86483C150.174 9.18152 150.824 9.63393 151.345 10.2221C151.876 10.8102 152.278 11.5114 152.549 12.3258C152.832 13.1288 152.973 14.0223 152.973 15.0063V26H151.345C150.994 26 150.728 25.9491 150.547 25.8473C150.366 25.7342 150.214 25.5137 150.089 25.1857L149.733 23.7775C149.292 24.1734 148.856 24.5297 148.427 24.8463C147.997 25.1517 147.55 25.4119 147.086 25.6268C146.634 25.8417 146.142 26 145.61 26.1018C145.09 26.2149 144.513 26.2714 143.88 26.2714C143.179 26.2714 142.523 26.1753 141.912 25.983C141.312 25.7908 140.792 25.5023 140.351 25.1178C139.91 24.7219 139.559 24.2356 139.299 23.6588C139.05 23.0819 138.926 22.4033 138.926 21.6229C138.926 20.9556 139.101 20.3052 139.452 19.6719C139.814 19.0385 140.402 18.473 141.216 17.9753C142.042 17.4663 143.122 17.0479 144.457 16.7199C145.803 16.3919 147.46 16.2052 149.428 16.16V15.0063C149.428 13.7622 149.162 12.8348 148.63 12.224C148.099 11.6132 147.318 11.3079 146.289 11.3079C145.588 11.3079 145 11.3983 144.525 11.5793C144.05 11.749 143.637 11.9356 143.286 12.1392C142.935 12.3428 142.624 12.535 142.353 12.716C142.082 12.8857 141.793 12.9705 141.488 12.9705C141.239 12.9705 141.024 12.9083 140.843 12.7839C140.673 12.6481 140.532 12.4841 140.419 12.2919L139.757 11.1043ZM160.894 21.6568C161.403 22.3128 161.957 22.7766 162.557 23.048C163.167 23.3081 163.84 23.4382 164.575 23.4382C166.001 23.4382 167.109 22.9179 167.901 21.8774C168.704 20.8368 169.105 19.2873 169.105 17.2288C169.105 16.1657 169.015 15.2608 168.834 14.5143C168.653 13.7566 168.393 13.1401 168.053 12.6651C167.714 12.1901 167.301 11.8451 166.815 11.6302C166.329 11.4153 165.78 11.3079 165.169 11.3079C164.242 11.3079 163.439 11.5114 162.76 11.9186C162.093 12.3145 161.471 12.8857 160.894 13.6321V21.6568ZM160.707 11.2061C161.431 10.3578 162.251 9.67352 163.167 9.15324C164.095 8.63297 165.169 8.37283 166.391 8.37283C167.363 8.37283 168.246 8.57076 169.037 8.96662C169.829 9.35117 170.508 9.91669 171.073 10.6632C171.639 11.4097 172.074 12.3371 172.38 13.4455C172.696 14.5426 172.855 15.8037 172.855 17.2288C172.855 18.5069 172.679 19.7001 172.329 20.8086C171.989 21.9057 171.497 22.8614 170.853 23.6757C170.208 24.4788 169.428 25.1121 168.511 25.5759C167.595 26.0283 166.56 26.2545 165.407 26.2545C164.389 26.2545 163.524 26.0905 162.811 25.7625C162.11 25.4345 161.471 24.9821 160.894 24.4052V31.7513H157.246V8.69517H159.452C159.949 8.69517 160.266 8.92703 160.402 9.39076L160.707 11.2061ZM180.046 21.6568C180.555 22.3128 181.11 22.7766 181.709 23.048C182.32 23.3081 182.993 23.4382 183.728 23.4382C185.153 23.4382 186.261 22.9179 187.053 21.8774C187.856 20.8368 188.258 19.2873 188.258 17.2288C188.258 16.1657 188.167 15.2608 187.986 14.5143C187.805 13.7566 187.545 13.1401 187.206 12.6651C186.867 12.1901 186.454 11.8451 185.967 11.6302C185.481 11.4153 184.932 11.3079 184.322 11.3079C183.394 11.3079 182.591 11.5114 181.913 11.9186C181.245 12.3145 180.623 12.8857 180.046 13.6321V21.6568ZM179.86 11.2061C180.584 10.3578 181.404 9.67352 182.32 9.15324C183.247 8.63297 184.322 8.37283 185.543 8.37283C186.516 8.37283 187.398 8.57076 188.19 8.96662C188.982 9.35117 189.66 9.91669 190.226 10.6632C190.791 11.4097 191.227 12.3371 191.532 13.4455C191.849 14.5426 192.007 15.8037 192.007 17.2288C192.007 18.5069 191.832 19.7001 191.481 20.8086C191.142 21.9057 190.65 22.8614 190.005 23.6757C189.36 24.4788 188.58 25.1121 187.664 25.5759C186.748 26.0283 185.713 26.2545 184.559 26.2545C183.541 26.2545 182.676 26.0905 181.963 25.7625C181.262 25.4345 180.623 24.9821 180.046 24.4052V31.7513H176.399V8.69517H178.604C179.102 8.69517 179.419 8.92703 179.554 9.39076L179.86 11.2061Z" fill="white"/>
</svg>
